<?xml version="1.0" encoding="UTF-8"?>
<svg version="1.1" xmlns="http://www.w3.org/2000/svg" width="254" height="254">
<path d="M0 0 C5.57809999 4.61776776 8.56672701 9.24266419 9.6953125 16.453125 C9.79152926 19.16035623 9.83886685 21.84168478 9.83575439 24.54864502 C9.83872552 25.35919397 9.84169664 26.16974292 9.8447578 27.00485396 C9.85342307 29.71841575 9.8549512 32.4319333 9.85644531 35.14550781 C9.86107501 37.09220982 9.86609988 39.03891092 9.87149048 40.98561096 C9.88460162 46.27294029 9.89105691 51.56025694 9.89550114 56.84759998 C9.89843387 60.15216301 9.90253906 63.45672259 9.90700531 66.76128387 C9.92067672 77.10415895 9.93034518 87.44702612 9.9342072 97.7899096 C9.93868752 109.72250634 9.95623577 121.6549885 9.9852078 133.5875504 C10.00683468 142.81574336 10.01691202 152.04390411 10.01824832 161.27212214 C10.0192956 166.7815903 10.02518718 172.29095071 10.04306793 177.80039215 C10.059566 182.98456382 10.06169563 188.16854693 10.05292892 193.35273552 C10.05215949 195.25178216 10.05648889 197.150839 10.06638718 199.04986 C10.0791415 201.65001954 10.07321116 204.24951469 10.06280518 206.84967041 C10.07086158 207.59434295 10.07891798 208.33901549 10.08721852 209.10625386 C10.02073554 216.24937527 8.3324311 223.41575534 3.4453125 228.828125 C2.90390625 229.45460937 2.3625 230.08109375 1.8046875 230.7265625 C-3.94878761 235.43588843 -9.57847856 235.95321499 -16.7421875 235.890625 C-17.54978516 235.91060547 -18.35738281 235.93058594 -19.18945312 235.95117188 C-25.98729372 235.94569416 -31.3827604 234.29044031 -36.328125 229.48828125 C-36.99714844 228.51181641 -36.99714844 228.51181641 -37.6796875 227.515625 C-38.14117187 226.86722656 -38.60265625 226.21882812 -39.078125 225.55078125 C-41.88039996 220.7583556 -42.58156993 216.82269885 -42.71929932 211.27253723 C-42.73876413 210.56773629 -42.75822894 209.86293535 -42.7782836 209.1367768 C-42.83927084 206.80200068 -42.88559355 204.46721417 -42.93066406 202.13208008 C-42.96868351 200.46993257 -43.00688623 198.80778924 -43.04526138 197.14564991 C-43.42663236 179.51202182 -43.39716544 161.87930091 -43.30294704 144.24284339 C-43.2888112 141.54182665 -43.27626911 138.84080676 -43.2641983 136.13978004 C-43.22170256 126.67688569 -43.17266979 117.21405037 -43.11767578 107.7512207 C-43.066904 98.98070531 -43.03195942 90.21021583 -43.00374198 81.4396016 C-42.97852873 73.83617853 -42.94195998 66.2328638 -42.89665627 58.62953407 C-42.86999286 54.11827053 -42.84792218 49.60710306 -42.83763885 45.09576988 C-42.82768975 40.88042121 -42.8035944 36.66538619 -42.76870537 32.45017242 C-42.75835023 30.91031012 -42.75299679 29.3704044 -42.75313759 27.83050728 C-42.75031044 17.81970014 -42.70542211 9.06530918 -35.3046875 1.453125 C-25.42264239 -6.4075927 -10.58956671 -7.10757359 0 0 Z " fill="#020202" transform="translate(114.3046875,9.546875)"/>
<path d="M0 0 C7.36450558 7.36720672 7.55391323 15.99414597 7.55712891 25.80175781 C7.54154287 27.60233414 7.5249579 29.40290206 7.50744629 31.20346069 C7.50573239 33.0757235 7.5058037 34.94798871 7.50756836 36.82025146 C7.50592159 40.72882292 7.48733932 44.63681634 7.45568848 48.54525757 C7.41595802 53.53957931 7.41165381 58.53314756 7.41915131 63.52759743 C7.4222291 67.3882327 7.41007262 71.24870052 7.39302063 75.10929489 C7.38602188 76.95037154 7.38286228 78.79146716 7.38371277 80.63255692 C7.38190301 83.20943402 7.36042334 85.78542883 7.33361816 88.3621521 C7.33654877 89.11249222 7.33947937 89.86283234 7.34249878 90.63591003 C7.21370284 98.71274113 4.76173083 105.19631997 -1.08630371 110.91439819 C-8.00411637 116.16992092 -17.09962402 116.46041458 -25.48474121 115.69564819 C-31.87619104 114.38199052 -37.24538819 111.04598458 -41.46130371 106.16439819 C-46.15107645 96.78485271 -45.38028976 86.46501918 -45.35192871 76.25424194 C-45.35327829 74.53749029 -45.35522127 72.82073901 -45.35772705 71.10398865 C-45.36066371 67.51918878 -45.35642728 63.93448908 -45.3470459 60.34970093 C-45.33564359 55.77137003 -45.34222503 51.19327348 -45.35419083 46.61495113 C-45.36144155 43.07433834 -45.35910693 39.53378048 -45.35393524 35.99316597 C-45.35260807 34.30558812 -45.35421352 32.61800516 -45.35889435 30.93043327 C-45.36401366 28.56680079 -45.35617463 26.20354032 -45.34509277 23.8399353 C-45.34914124 23.15347931 -45.3531897 22.46702332 -45.35736084 21.75976562 C-45.28232219 13.0540087 -43.19066896 6.20700378 -37.08630371 -0.08560181 C-26.77132216 -8.3869017 -10.25667304 -8.85637774 0 0 Z " fill="#020202" transform="translate(176.0863037109375,11.085601806640625)"/>
<path d="M0 0 C4.80923168 3.69152112 7.41755679 7.94809001 8.95703125 13.78125 C9.70594423 20.22287777 9.49624134 26.75326787 9.453125 33.2265625 C9.45328017 35.12507177 9.45477217 37.02358136 9.45753479 38.92208862 C9.45891457 42.8878186 9.44642903 46.85318505 9.42358398 50.81884766 C9.39516183 55.89062305 9.39795291 60.96179683 9.4106741 66.03361702 C9.41764207 69.94909771 9.40982984 73.86444036 9.39741707 77.77990341 C9.39291619 79.64972275 9.39255379 81.51955697 9.39648247 83.38937759 C9.3994067 86.0048467 9.38283163 88.61949782 9.36108398 91.23486328 C9.36558563 91.99972046 9.37008728 92.76457764 9.37472534 93.5526123 C9.26685894 101.39631505 6.58530101 107.15298024 0.95703125 112.78125 C-7.5362044 118.61686486 -16.26289381 118.23065782 -26.0859375 116.50390625 C-33.17554778 114.77130664 -37.3263081 109.99603841 -41.15551758 104.05517578 C-42.39792492 100.87174196 -42.42062832 97.77109422 -42.4921875 94.3984375 C-42.51455978 93.65156174 -42.53693207 92.90468597 -42.5599823 92.13517761 C-42.62924596 89.64233747 -42.68159574 87.14956954 -42.73046875 84.65625 C-42.74909973 83.79675751 -42.76773071 82.93726501 -42.78692627 82.05172729 C-43.0909177 67.42678985 -43.13146049 52.79853047 -42.95474243 38.17169189 C-42.93035335 35.96453057 -42.91381127 33.7572677 -42.90536499 31.54998779 C-42.88991863 28.42958748 -42.8418671 25.31129662 -42.78515625 22.19140625 C-42.78589645 21.27103073 -42.78663666 20.35065521 -42.78739929 19.40238953 C-42.61795904 12.92173926 -41.03100694 7.96561618 -37.04296875 2.78125 C-33.54361748 -0.21875 -33.54361748 -0.21875 -31.04296875 -0.21875 C-30.71296875 -0.87875 -30.38296875 -1.53875 -30.04296875 -2.21875 C-20.03737236 -5.49330882 -9.2539287 -5.52050814 0 0 Z " fill="#010101" transform="translate(55.04296875,128.21875)"/>
<path d="M0 0 C0.74805908 0.00829834 1.49611816 0.01659668 2.2668457 0.02514648 C9.9671931 0.26046977 15.56844469 1.96986978 21 7.625 C26.27676105 14.69442489 27.11268743 22.33569272 27 30.9375 C27.01160156 31.82308594 27.02320313 32.70867187 27.03515625 33.62109375 C26.99768071 42.12804224 25.3205279 49.61988964 19.34375 55.93359375 C12.49481774 61.92640948 4.60377854 62.82033732 -4.2421875 62.25390625 C-10.95342935 61.35225741 -15.67791134 59.34902232 -20.375 54.4375 C-25.73399114 46.79726708 -26.14477367 39.41393796 -26 30.3125 C-26.01933594 29.08917969 -26.03867188 27.86585938 -26.05859375 26.60546875 C-26.01847942 19.18431719 -25.23183859 14.16293051 -20.375 8.4375 C-19.59125 7.509375 -18.8075 6.58125 -18 5.625 C-12.40610023 0.96341686 -7.06802634 -0.10093774 0 0 Z " fill="#020202" transform="translate(216.375,183.5625)"/>
<path d="M0 0 C7.22663207 7.89887691 8.45067109 15.68787375 8.1875 26.125 C8.19136719 27.82946289 8.19136719 27.82946289 8.1953125 29.56835938 C8.09825363 37.89115787 7.03992537 43.74732878 1.4375 50.1875 C0.62539062 51.15429688 0.62539062 51.15429688 -0.203125 52.140625 C-5.52065566 56.67037334 -10.95172209 57.47119294 -17.6875 57.375 C-18.43555908 57.36670166 -19.18361816 57.35840332 -19.9543457 57.34985352 C-26.73993524 57.14248531 -32.03634442 56.00711534 -37.109375 51.25390625 C-45.32031483 42.16322287 -44.63250732 31.44785648 -44.1875 19.75 C-43.784092 12.82338348 -43.14102119 6.31223399 -38.3125 0.9375 C-26.73655421 -7.07949806 -11.96579488 -7.45040059 0 0 Z " fill="#010101" transform="translate(56.3125,10.0625)"/>
<path d="M0 0 C7.0875635 5.79891559 10.04924915 11.77208022 11.03686523 20.90185547 C11.14958429 23.56616894 11.16008276 26.20870994 11.125 28.875 C11.13660156 29.76445313 11.14820313 30.65390625 11.16015625 31.5703125 C11.12677911 39.13579808 9.72375431 46.10446228 4.359375 51.86328125 C-2.81879289 58.0483531 -10.35344881 59.06024108 -19.53515625 58.59765625 C-26.90668294 57.90778677 -31.41057021 55.62768561 -36.70703125 50.45703125 C-41.85947694 43.0870773 -41.76899991 35.50971054 -41.75 26.8125 C-41.77835938 25.63623047 -41.80671875 24.45996094 -41.8359375 23.24804688 C-41.85663555 13.99084569 -39.88531146 8.13893784 -33.5625 1.375 C-23.3813687 -5.15629178 -10.69223272 -5.75735608 0 0 Z " fill="#020202" transform="translate(232.25,8.75)"/>
<path d="M0 0 C0.75539062 -0.01546875 1.51078125 -0.0309375 2.2890625 -0.046875 C9.28870781 0.00123253 14.37252011 2.35024373 19.75 6.75 C26.19010585 14.62124049 26.60383904 21.16264403 26.4375 31.0625 C26.44458984 32.25552734 26.45167969 33.44855469 26.45898438 34.67773438 C26.39583498 43.41663958 25.42235718 50.07764282 19 56.5 C13.42555677 61.47180072 7.6156881 61.98710032 0.4375 62.0625 C-0.76724976 62.08437378 -0.76724976 62.08437378 -1.99633789 62.10668945 C-8.85750094 61.99068454 -13.92432226 60.00233711 -19.2421875 55.67578125 C-19.78101563 55.06089844 -20.31984375 54.44601563 -20.875 53.8125 C-21.42929688 53.21050781 -21.98359375 52.60851562 -22.5546875 51.98828125 C-26.2243794 45.67046034 -26.36341942 38.20576713 -26.3125 31.0625 C-26.30404053 29.81581543 -26.30404053 29.81581543 -26.29541016 28.54394531 C-26.12146411 19.75019746 -24.80052894 12.89413132 -18.98828125 6.0703125 C-13.03137533 1.36564417 -7.50567183 -0.15369976 0 0 Z " fill="#020202" transform="translate(157,183.5)"/>
<path d="M0 0 C-1.19625 0.350625 -2.3925 0.70125 -3.625 1.0625 C-7.93668012 2.63733352 -10.07787005 4.93746155 -12.7734375 8.57421875 C-13.17820312 9.04472656 -13.58296875 9.51523437 -14 10 C-14.66 10 -15.32 10 -16 10 C-17.15684852 16.49327879 -17.21919607 22.91566033 -17.25 29.5 C-17.270625 30.60214844 -17.29125 31.70429687 -17.3125 32.83984375 C-17.3547592 41.6403222 -16.095062 47.31509329 -10 54 C-9.34 54.33 -8.68 54.66 -8 55 C-8.33 55.66 -8.66 56.32 -9 57 C-14.42485318 52.80874357 -18.27548229 49.4459041 -19.4296875 42.36328125 C-20.59909099 30.99724973 -21.76204365 16.13000359 -15.7265625 5.9296875 C-11.75743281 1.49360137 -5.94079041 -2.15405102 0 0 Z " fill="#161616" transform="translate(32,7)"/>
<path d="M0 0 C1.01356579 3.15331579 0.79137542 4.8437625 0 8 C-0.27052507 11.53809474 -0.27716775 15.07764259 -0.3125 18.625 C-0.34150391 19.57246094 -0.37050781 20.51992187 -0.40039062 21.49609375 C-0.48047291 30.50227049 1.7399732 38.29282843 8 45 C4.61743279 43.60802671 3.16311318 42.1974504 1.3125 39.0625 C0.89613281 38.37285156 0.47976562 37.68320313 0.05078125 36.97265625 C-3.07715385 31.10051042 -2.18426936 24.53992576 -2.1875 18.0625 C-2.19974609 16.77408203 -2.21199219 15.48566406 -2.22460938 14.15820312 C-2.22654297 12.92134766 -2.22847656 11.68449219 -2.23046875 10.41015625 C-2.23457764 9.27715088 -2.23868652 8.14414551 -2.24291992 6.97680664 C-2.00724647 4.08880026 -1.50363523 2.44000852 0 0 Z " fill="#1D1D1D" transform="translate(193,196)"/>
<path d="M0 0 C0.66 0.33 1.32 0.66 2 1 C0.98679688 1.90492187 0.98679688 1.90492187 -0.046875 2.828125 C-1.38492188 4.02695313 -1.38492188 4.02695313 -2.75 5.25 C-3.63171875 6.03890625 -4.5134375 6.8278125 -5.421875 7.640625 C-7.67866165 9.70592672 -9.85739926 11.81735064 -12 14 C-10.35240787 8.56294599 -6.79335168 3.71290433 -1.9296875 0.73046875 C-1.29289063 0.48941406 -0.65609375 0.24835937 0 0 Z " fill="#151515" transform="translate(145,7)"/>
<path d="M0 0 C0.62841797 0.85851562 0.62841797 0.85851562 1.26953125 1.734375 C2.99395108 3.99208042 4.80704283 6.12118056 6.6875 8.25 C7.31011719 8.95640625 7.93273437 9.6628125 8.57421875 10.390625 C9.04472656 10.92171875 9.51523438 11.4528125 10 12 C7 12 7 12 4.4375 9.6875 C0 4.79487179 0 4.79487179 0 0 Z " fill="#151414" transform="translate(133,110)"/>
<path d="" fill="#000000" transform="translate(0,0)"/>
<path d="" fill="#000000" transform="translate(0,0)"/>
<path d="" fill="#000000" transform="translate(0,0)"/>
<path d="" fill="#000000" transform="translate(0,0)"/>
<path d="" fill="#000000" transform="translate(0,0)"/>
<path d="" fill="#000000" transform="translate(0,0)"/>
<path d="" fill="#000000" transform="translate(0,0)"/>
<path d="" fill="#000000" transform="translate(0,0)"/>
<path d="" fill="#000000" transform="translate(0,0)"/>
<path d="" fill="#000000" transform="translate(0,0)"/>
<path d="" fill="#000000" transform="translate(0,0)"/>
<path d="" fill="#000000" transform="translate(0,0)"/>
<path d="" fill="#000000" transform="translate(0,0)"/>
<path d="" fill="#000000" transform="translate(0,0)"/>
<path d="" fill="#000000" transform="translate(0,0)"/>
<path d="" fill="#000000" transform="translate(0,0)"/>
<path d="" fill="#000000" transform="translate(0,0)"/>
<path d="" fill="#000000" transform="translate(0,0)"/>
<path d="" fill="#000000" transform="translate(0,0)"/>
<path d="" fill="#000000" transform="translate(0,0)"/>
<path d="" fill="#000000" transform="translate(0,0)"/>
<path d="" fill="#000000" transform="translate(0,0)"/>
<path d="" fill="#000000" transform="translate(0,0)"/>
<path d="" fill="#000000" transform="translate(0,0)"/>
<path d="" fill="#000000" transform="translate(0,0)"/>
<path d="" fill="#000000" transform="translate(0,0)"/>
<path d="" fill="#000000" transform="translate(0,0)"/>
<path d="" fill="#000000" transform="translate(0,0)"/>
<path d="" fill="#000000" transform="translate(0,0)"/>
<path d="" fill="#000000" transform="translate(0,0)"/>
<path d="" fill="#000000" transform="translate(0,0)"/>
<path d="" fill="#000000" transform="translate(0,0)"/>
<path d="" fill="#000000" transform="translate(0,0)"/>
<path d="" fill="#000000" transform="translate(0,0)"/>
<path d="" fill="#000000" transform="translate(0,0)"/>
<path d="" fill="#000000" transform="translate(0,0)"/>
<path d="" fill="#000000" transform="translate(0,0)"/>
<path d="" fill="#000000" transform="translate(0,0)"/>
<path d="" fill="#000000" transform="translate(0,0)"/>
<path d="" fill="#000000" transform="translate(0,0)"/>
<path d="" fill="#000000" transform="translate(0,0)"/>
<path d="" fill="#000000" transform="translate(0,0)"/>
<path d="" fill="#000000" transform="translate(0,0)"/>
<path d="" fill="#000000" transform="translate(0,0)"/>
<path d="" fill="#000000" transform="translate(0,0)"/>
<path d="" fill="#000000" transform="translate(0,0)"/>
<path d="" fill="#000000" transform="translate(0,0)"/>
<path d="" fill="#000000" transform="translate(0,0)"/>
<path d="" fill="#000000" transform="translate(0,0)"/>
<path d="" fill="#000000" transform="translate(0,0)"/>
</svg>
