<svg xmlns="http://www.w3.org/2000/svg" version="1.1" xmlns:xlink="http://www.w3.org/1999/xlink" xmlns:svgjs="http://svgjs.com/svgjs" width="2360" height="300" transform="matrix(1,0,0,1,0,0)">
  <text font-family="DM Sans" font-size="260" text-anchor="left" x="310" charspacing="20px">
    <tspan dy="239.20000000000002" x="310">Coin Compass</tspan>
  </text>
  <path transform="matrix(1,0,0,1,50,50)" d="M0,18A18,18,90,0,1,18,0L23.667,0A18,18,90,0,1,41.667,18L41.667,32A18,18,-270,0,1,23.667,50L18,50A18,18,90,0,1,0,32ZM0,118A18,18,90,0,1,18,100L23.667,100A18,18,90,0,1,41.667,118L41.66666666666667,150L0,150ZM0,150L41.66666666666667,150L41.667,182A18,18,-270,0,1,23.667,200L18,200A18,18,90,0,1,0,182ZM50,150L91.66666666666667,150L91.667,182A18,18,-270,0,1,73.667,200L68,200A18,18,90,0,1,50,182ZM50,100L91.66666666666667,100L91.66666666666667,150L50,150ZM50,50L91.66666666666667,50L91.66666666666667,100L50,100ZM50,18A18,18,90,0,1,68,0L73.667,0A18,18,90,0,1,91.667,18L91.66666666666667,50L50,50ZM100,18A18,18,90,0,1,118,0L123.667,0A18,18,90,0,1,141.667,18L141.66666666666669,50L100,50ZM100,50L141.66666666666669,50L141.667,82A18,18,-270,0,1,123.667,100L118,100A18,18,90,0,1,100,82ZM100,168A18,18,90,0,1,118,150L123.667,150A18,18,90,0,1,141.667,168L141.667,182A18,18,-270,0,1,123.667,200L118,200A18,18,90,0,1,100,182ZM150,168A18,18,90,0,1,168,150L173.667,150A18,18,90,0,1,191.667,168L191.667,182A18,18,-270,0,1,173.667,200L168,200A18,18,90,0,1,150,182ZM150,18A18,18,90,0,1,168,0L173.667,0A18,18,90,0,1,191.667,18L191.667,32A18,18,-270,0,1,173.667,50L168,50A18,18,90,0,1,150,32Z"/>
</svg>